<?xml version="1.0" standalone="no"?>
<!DOCTYPE svg PUBLIC "-//W3C//DTD SVG 20010904//EN"
 "http://www.w3.org/TR/2001/REC-SVG-20010904/DTD/svg10.dtd">
<svg version="1.0" xmlns="http://www.w3.org/2000/svg"
 width="548.000000pt" height="508.000000pt" viewBox="0 0 548.000000 508.000000"
 preserveAspectRatio="xMidYMid meet">

<g transform="translate(0.000000,508.000000) scale(0.100000,-0.100000)"
fill="#537297" stroke="none">
<path d="M2385 4784 c-177 -42 -257 -69 -365 -122 -133 -65 -281 -197 -378
-335 -51 -74 -142 -257 -172 -347 -27 -81 -50 -209 -50 -280 0 -30 5 -102 12
-162 11 -96 10 -109 -4 -125 -9 -10 -28 -43 -42 -73 -22 -46 -26 -69 -26 -145
0 -153 54 -265 183 -381 38 -34 59 -63 70 -94 53 -155 152 -335 227 -410 32
-32 33 -39 1 -88 -47 -74 -67 -87 -181 -117 -137 -35 -228 -69 -320 -118 -183
-97 -335 -221 -429 -350 -23 -32 -64 -101 -91 -155 -136 -273 -157 -368 -168
-771 l-7 -273 -192 1 c-172 2 -197 0 -237 -18 -74 -32 -104 -106 -71 -174 21
-44 44 -60 115 -78 76 -18 4868 -16 4964 2 110 22 160 102 116 188 -30 59 -79
80 -188 81 l-84 0 7 88 c3 48 10 119 15 157 5 39 12 117 15 175 l7 105 -56
117 c-31 65 -56 120 -56 123 0 4 -103 223 -142 303 -9 18 -20 22 -55 22 -24 0
-43 -4 -43 -10 0 -12 -41 -104 -135 -305 -127 -270 -118 -243 -112 -347 7
-128 26 -345 33 -390 l6 -38 -105 0 -106 0 -5 53 c-3 28 -8 108 -11 177 -13
309 -72 545 -203 820 -82 172 -193 310 -325 404 -125 89 -398 201 -570 233
-27 5 -92 71 -118 120 -11 20 -7 28 47 85 89 95 123 150 194 313 5 11 18 49
30 84 18 55 32 75 98 140 53 52 88 96 110 141 33 67 62 165 62 210 0 40 -29
129 -56 171 -29 47 -30 60 -4 152 55 192 67 324 46 465 -25 166 -55 233 -135
305 -53 48 -112 74 -218 96 l-83 17 -97 100 c-125 129 -216 191 -342 236 -44
15 -88 21 -206 23 -82 2 -159 2 -170 -1z m748 -873 c135 -141 150 -183 151
-444 1 -175 1 -179 25 -198 13 -10 36 -19 52 -19 25 0 29 -4 29 -29 0 -79 -57
-171 -118 -189 -22 -7 -44 -18 -50 -25 -6 -6 -25 -55 -42 -107 -74 -217 -132
-322 -235 -426 -88 -89 -173 -137 -293 -168 -83 -21 -251 -21 -334 0 -231 58
-402 251 -513 579 -31 92 -45 110 -101 136 -47 23 -77 59 -94 115 -19 64 -11
95 29 109 53 17 62 38 55 121 -4 40 -3 105 0 146 l7 75 62 21 c118 42 173 52
367 67 227 19 337 36 436 70 101 35 232 103 354 184 58 39 110 70 116 71 6 0
50 -40 97 -89z m-254 -1835 c32 -33 34 -38 28 -87 -13 -106 -118 -212 -254
-255 -79 -26 -247 -26 -318 0 -145 51 -245 149 -270 263 -5 26 -1 39 21 69 31
40 32 40 148 5 147 -44 399 -38 536 13 36 14 67 25 71 25 3 1 20 -15 38 -33z
m-1024 -284 c97 -155 238 -260 430 -318 81 -24 333 -26 416 -2 188 54 347 168
426 306 15 26 28 49 29 50 2 4 43 -10 223 -73 161 -57 240 -101 340 -191 208
-187 313 -486 328 -937 l6 -187 -191 -2 c-106 -1 -200 -2 -209 -2 -16 -1 -19
14 -25 119 -21 338 -31 380 -98 416 -69 37 -152 17 -185 -45 -15 -28 -16 -55
-8 -256 5 -124 8 -228 6 -231 -1 -4 -168 -7 -370 -8 -201 -1 -371 -5 -376 -8
-5 -3 -228 -2 -495 2 l-485 7 6 221 c7 248 3 270 -57 302 -25 13 -47 17 -91
13 -51 -4 -62 -9 -86 -37 -31 -37 -35 -62 -49 -311 -6 -96 -12 -180 -14 -186
-3 -7 -26 -10 -58 -9 -29 1 -119 3 -200 4 l-148 1 0 183 c0 344 33 549 112
695 135 250 280 361 638 487 41 15 84 30 95 35 42 18 59 11 90 -38z m3030
-766 c12 -9 20 -30 23 -68 6 -72 -10 -88 -83 -88 -69 0 -85 15 -85 81 0 76 11
89 73 89 29 0 61 -6 72 -14z"/>
<path d="M2731 3362 c-19 -9 -48 -34 -65 -55 -28 -35 -31 -46 -31 -110 0 -85
22 -125 85 -157 74 -38 145 -21 197 46 22 30 28 49 31 103 4 85 -22 136 -88
169 -53 27 -84 28 -129 4z"/>
<path d="M2105 3357 c-84 -39 -118 -152 -76 -250 26 -61 71 -91 136 -91 64 0
105 27 134 89 40 84 18 187 -49 237 -34 24 -107 32 -145 15z"/>
</g>
</svg>
